<svg xmlns="http://www.w3.org/2000/svg" width="72" height="73" viewBox="0 0 72 73" fill="none">
    <path d="M37.0153 1.2357C37.0153 1.77522 36.5758 2.2113 36.0328 2.2113C35.4892 2.2113 35.0523 1.77458 35.0523 1.2357C35.0523 0.696824 35.4892 0.260742 36.0328 0.260742C36.5758 0.260742 37.0153 0.696824 37.0153 1.2357ZM42.7304 3.36312C42.7304 3.90263 43.1692 4.33871 43.7109 4.33871C44.252 4.33871 44.6915 3.90199 44.6915 3.36312C44.6915 2.8236 44.252 2.38816 43.7109 2.38816C43.1692 2.38816 42.7304 2.8236 42.7304 3.36312ZM28.2931 2.38816C27.752 2.38816 27.3125 2.82424 27.3125 3.36312C27.3125 3.90263 27.752 4.33871 28.2931 4.33871C28.8348 4.33871 29.2736 3.90199 29.2736 3.36312C29.2736 2.8236 28.8354 2.38816 28.2931 2.38816ZM44.4274 4.66434H43.1352C43.1333 4.67264 43.1313 4.6803 43.13 4.68796H43.0671C42.6635 6.03579 41.3867 6.1073 39.93 5.91576C38.4778 5.72485 37.2274 4.08013 36.8097 2.53692H36.7242H35.2849H35.1988C34.7792 4.08077 33.5313 5.72869 32.0772 5.91576C30.5858 6.1073 29.3398 6.03643 28.9395 4.68796H28.8765C28.8746 4.6803 28.8727 4.672 28.8714 4.66434H27.5779C28.081 6.6315 28.5848 8.59801 29.0879 10.5652C29.1464 10.5396 29.2479 10.5147 29.3867 10.4905C29.3912 10.4962 29.397 10.4981 29.3989 10.4962C29.4015 10.4943 29.3996 10.4886 29.3996 10.4886C30.3364 10.3296 32.9395 10.2159 36.0065 10.2159C39.0703 10.2159 41.6714 10.3302 42.6108 10.4886C42.668 10.4962 42.7316 10.5083 42.7991 10.5262C42.8422 10.5377 42.882 10.5505 42.9193 10.5633C43.4211 8.5961 43.9243 6.63022 44.4274 4.66434Z" fill="white"/>
    <path d="M5.31609 29.9215C4.77504 34.8947 5.29553 40.413 8.10742 45.3587C10.9829 50.4161 15.4944 55.3062 21.2583 58.1411C29.1786 62.0364 30.4625 61.6221 36.9923 63.8427C45.6792 66.7963 46.5743 72.2617 46.5743 72.2617H45.595C42.9701 66.7159 38.0493 65.2895 36.6138 64.6785C31.4283 62.47 21.1349 60.7071 13.834 53.606C11.3935 51.2308 4.17488 43.8819 4.78211 32.222C5.44717 19.4473 12.0091 12.5204 12.0091 12.5204C6.47272 19.2436 5.85713 24.9484 5.31609 29.9215ZM6.21505 35.1341C11.0285 32.6312 10.1206 29.0232 10.1103 28.9874C10.0859 28.8955 10.0191 28.8208 9.93104 28.7844C9.84301 28.748 9.74212 28.7544 9.65923 28.8023C4.85729 31.5592 5.73697 34.8117 5.77681 34.9489C5.80252 35.037 5.86677 35.1092 5.95159 35.1456C5.99015 35.1622 6.03127 35.1698 6.0724 35.1698C6.12187 35.1692 6.17071 35.1577 6.21505 35.1341ZM7.87417 41.5795C7.81698 41.6306 7.74372 41.6581 7.66854 41.6581C7.65312 41.6581 7.63706 41.6568 7.62164 41.6542C7.53039 41.6402 7.45007 41.5859 7.40316 41.5068C7.33055 41.3835 5.66758 38.4491 9.63288 34.5965C9.701 34.5301 9.79738 34.4988 9.89184 34.5122C9.9863 34.5256 10.0698 34.5824 10.1161 34.6648C10.1347 34.6986 11.9134 37.9702 7.87417 41.5795ZM13.2223 18.3759C13.3174 18.3759 13.4067 18.4193 13.4652 18.494C13.5237 18.5694 13.5442 18.6671 13.5198 18.759C13.5108 18.7941 13.284 19.6254 12.4274 20.4273C11.6917 21.1163 10.332 21.9137 7.98597 21.9137C7.8626 21.9137 7.73666 21.9118 7.6075 21.9067C7.51497 21.9035 7.42951 21.8595 7.3736 21.786C7.3177 21.7126 7.29778 21.6187 7.31963 21.5294C7.35047 21.4017 8.13634 18.4072 13.221 18.3753C13.221 18.3759 13.2216 18.3759 13.2223 18.3759ZM6.12123 28.0878C6.10645 28.0897 6.09167 28.091 6.07689 28.091C6.00043 28.091 5.92653 28.0629 5.86934 28.0112C5.80123 27.9493 5.7646 27.8599 5.76974 27.7686C5.77746 27.6377 6.00878 24.5513 11.0048 23.6121C11.0986 23.5948 11.1956 23.621 11.2669 23.6842C11.3383 23.7474 11.3755 23.84 11.3685 23.9352C11.3659 23.9715 11.2933 24.8297 10.5955 25.7714C9.96445 26.6232 8.6761 27.7169 6.12123 28.0878ZM14.7143 52.7938C14.6829 52.804 14.6501 52.8091 14.6173 52.8091C14.5595 52.8091 14.5023 52.7932 14.4528 52.7619C14.3314 52.6853 11.5034 50.8292 13.2602 45.6026C13.2904 45.5126 13.3611 45.4417 13.4517 45.4104C13.5423 45.3798 13.6419 45.3919 13.7216 45.4443C13.7531 45.4647 16.8393 47.5685 14.9045 52.6125C14.8718 52.6987 14.8024 52.7651 14.7143 52.7938ZM4.86179 27.9467C4.84573 28.0374 4.78982 28.1153 4.7095 28.1606C4.66324 28.1868 4.61119 28.1996 4.55914 28.1996C4.52123 28.1996 4.48267 28.1925 4.44669 28.1785C4.29826 28.1204 0.821945 26.687 1.63416 20.6036C1.64636 20.5091 1.70291 20.4261 1.7858 20.3788C1.86869 20.3316 1.96894 20.3252 2.05761 20.3616C2.09552 20.3769 5.90726 22.0274 4.86179 27.9467ZM10.7445 47.8073C10.6918 47.8826 10.6077 47.9305 10.5151 47.9369C10.5074 47.9375 10.4997 47.9375 10.492 47.9375C10.4078 47.9375 10.3275 47.9037 10.269 47.8424C10.1701 47.739 7.87931 45.2572 10.8589 40.6091C10.9103 40.5292 10.9964 40.4769 11.0915 40.4686C11.1885 40.4603 11.2804 40.4967 11.3453 40.5669C11.371 40.5956 13.852 43.3801 10.7445 47.8073ZM4.7744 34.8774C4.77762 34.9694 4.73906 35.0575 4.66966 35.1181C4.61312 35.1673 4.54115 35.1941 4.46725 35.1941C4.45055 35.1941 4.4332 35.1928 4.41649 35.1896C4.25906 35.1635 0.559776 34.4752 0.0874864 28.3573C0.0804182 28.2628 0.117687 28.1695 0.189013 28.1063C0.260338 28.0431 0.357366 28.0163 0.451182 28.0336C0.491664 28.0412 4.56492 28.8719 4.7744 34.8774ZM6.28766 21.6705C6.26131 21.6775 6.23432 21.6807 6.20798 21.6807C6.14436 21.6807 6.08139 21.6609 6.02806 21.6232C5.90726 21.537 3.09472 19.4466 5.2332 14.1396C5.26854 14.0515 5.34372 13.9844 5.43561 13.9589C5.5275 13.9334 5.62645 13.9519 5.70292 14.0087C5.7344 14.0317 8.79883 16.3947 6.48814 21.5006C6.45023 21.5843 6.37697 21.6468 6.28766 21.6705ZM10.1752 15.783C10.0859 15.7607 10.0107 15.6994 9.97152 15.6164C9.93232 15.5334 9.93297 15.437 9.97281 15.3546C10.03 15.2365 11.4282 12.4706 16.4069 13.4941C16.5007 13.5132 16.5797 13.5745 16.6215 13.6601C16.6633 13.7456 16.662 13.8459 16.6196 13.9308C16.6029 13.9634 16.207 14.7289 15.2008 15.3361C14.5845 15.7077 13.6477 16.0672 12.3298 16.0672C11.7 16.0665 10.9842 15.9848 10.1752 15.783ZM9.53586 56.3221C9.56927 56.2972 12.9479 53.8882 17.5294 57.811C17.5995 57.871 17.6387 57.9591 17.6361 58.0504C17.6335 58.1424 17.5898 58.2279 17.5166 58.2841C17.4478 58.3371 16.5219 59.0228 14.9116 59.0228C13.5635 59.0228 11.7354 58.542 9.52815 56.8073C9.45296 56.7486 9.40991 56.6579 9.4112 56.5628C9.41313 56.4676 9.45939 56.3789 9.53586 56.3221ZM9.40284 15.1241C9.4022 15.1241 9.40092 15.1241 9.40027 15.1241C9.30903 15.1241 9.22228 15.0839 9.16381 15.0137C9.06871 14.9 6.87433 12.175 10.2845 7.57155C10.341 7.49493 10.4303 7.44896 10.5261 7.44704C10.6231 7.44513 10.713 7.48727 10.7722 7.56197C10.7966 7.59262 13.167 10.6439 9.63995 15.0098C9.58212 15.0813 9.49537 15.1235 9.40284 15.1241ZM23.8703 60.9019C23.9552 60.9389 24.0181 61.0117 24.0432 61.0998C24.0676 61.1885 24.0515 61.283 23.9982 61.3577C23.9307 61.4522 22.7201 63.0931 19.8202 63.0931C18.7574 63.0931 17.4684 62.8729 15.9249 62.2759C15.8356 62.2414 15.7682 62.1673 15.7412 62.076C15.7142 61.9847 15.7322 61.8864 15.7887 61.8098C15.8138 61.7759 18.3314 58.4878 23.8703 60.9019ZM5.043 50.7641C5.08027 50.7456 8.82389 48.9476 12.6613 53.5932C12.7198 53.6641 12.7436 53.7573 12.7249 53.8473C12.7063 53.9373 12.6485 54.0146 12.5669 54.0574C12.5058 54.0893 11.8465 54.4207 10.7863 54.4207C9.38742 54.4207 7.292 53.8441 4.95111 51.241C4.88749 51.1702 4.86051 51.0737 4.8785 50.9805C4.89649 50.8867 4.95753 50.8069 5.043 50.7641ZM0.0515025 36.4602C0.102266 36.3874 0.185157 36.3415 0.274475 36.3376C0.313672 36.3351 4.20444 36.2144 5.70677 41.6383C5.72991 41.7213 5.71384 41.81 5.66372 41.8796C5.6136 41.9499 5.53456 41.9939 5.44846 41.9997C5.42468 42.0009 5.31352 42.0067 5.13745 41.9926C4.21536 41.9192 1.49665 41.3031 0.0135907 36.7105C-0.0133973 36.6256 9.67387e-05 36.533 0.0515025 36.4602ZM2.08203 43.7663C2.12315 43.7574 6.19963 42.9446 8.74999 48.3928C8.78919 48.4758 8.78855 48.5722 8.74806 48.6545C8.70758 48.7369 8.6324 48.7976 8.54244 48.8186C8.50517 48.8276 8.26613 48.8799 7.88445 48.8799C6.67384 48.8799 4.03095 48.35 1.87383 44.2043C1.83014 44.1201 1.82821 44.0198 1.86869 43.9343C1.90982 43.8487 1.98821 43.7868 2.08203 43.7663ZM30.3449 63.572C30.4329 63.6001 30.5036 63.6658 30.537 63.7514C30.5711 63.837 30.564 63.9327 30.5184 64.0125C30.4541 64.1256 29.194 66.2594 25.5764 66.2594C24.6652 66.2594 23.6056 66.124 22.3764 65.7875C22.2838 65.762 22.2093 65.6956 22.1733 65.6075C22.1373 65.5194 22.145 65.4198 22.1932 65.3374C22.2157 65.301 24.4377 61.6853 30.3449 63.572ZM13.0051 11.7791C12.9736 11.79 12.9408 11.7951 12.9081 11.7951C12.8502 11.7951 12.7931 11.7791 12.7436 11.7478C12.6658 11.6987 12.6138 11.6176 12.6028 11.5263C12.5849 11.3794 12.2269 7.90803 17.6033 5.87447C17.6927 5.84063 17.7929 5.8502 17.8745 5.90001C17.9561 5.94981 18.0094 6.03472 18.0191 6.12922C18.0223 6.16817 18.35 10.0086 13.0051 11.7791ZM19.3556 56.3342C19.3119 56.3559 19.2644 56.3674 19.2168 56.3674C19.1744 56.3674 19.132 56.3584 19.0922 56.3412C18.9611 56.2831 15.889 54.8612 16.8522 49.4341C16.8689 49.3403 16.928 49.2598 17.0135 49.2164C17.0983 49.1724 17.1985 49.1704 17.2859 49.2107C17.32 49.2266 20.6845 50.856 19.5182 56.128C19.4976 56.2167 19.4379 56.2927 19.3556 56.3342ZM26.163 56.4989C26.136 56.4076 26.1534 56.3093 26.2093 56.2327C26.2658 56.156 26.3545 56.1094 26.4503 56.1075C26.485 56.1088 30.2305 56.0782 31.5465 61.3156C31.569 61.4044 31.5497 61.4988 31.4944 61.5723C31.4392 61.6457 31.3537 61.691 31.2612 61.6949C31.2541 61.6949 31.2381 61.6955 31.2149 61.6955C30.778 61.6955 27.6506 61.5161 26.163 56.4989ZM25.0681 59.5202C25.0488 59.5202 25.0295 59.5183 25.0103 59.5145C24.8689 59.4876 21.5526 58.7949 21.2519 53.2925C21.2467 53.1973 21.2859 53.1054 21.3585 53.0435C21.4311 52.9815 21.5288 52.9573 21.622 52.9764C21.6586 52.9841 25.3078 53.8128 25.3752 59.2099C25.3765 59.3018 25.336 59.3893 25.2654 59.448C25.2095 59.4953 25.1394 59.5202 25.0681 59.5202Z" fill="white"/>
    <path d="M59.9884 12.5204C59.9884 12.5204 66.5497 19.4479 67.2154 32.2226C67.8226 43.8819 60.6033 51.2314 58.1628 53.6059C50.8619 60.7071 40.5679 62.47 35.3824 64.6778C33.9469 65.2889 29.0261 66.7152 26.4012 72.2611H25.4219C25.4219 72.2611 26.317 66.7957 35.0039 63.8421C41.5337 61.6221 42.8176 62.0358 50.7379 58.1404C56.5018 55.3056 61.0133 50.4155 63.8888 45.3581C66.7007 40.4124 67.2211 34.894 66.6801 29.9209C66.1397 24.9484 65.5248 19.2436 59.9884 12.5204ZM65.9244 35.1692C65.9656 35.1692 66.0067 35.1609 66.0452 35.1449C66.1301 35.1085 66.1943 35.0364 66.22 34.9483C66.2599 34.811 67.1389 31.5586 62.3376 28.8016C62.2547 28.7544 62.1545 28.7474 62.0658 28.7838C61.9778 28.8202 61.9109 28.8955 61.8865 28.9868C61.8769 29.0232 60.9689 32.6306 65.7818 35.1334C65.8261 35.1577 65.875 35.1692 65.9244 35.1692ZM61.8807 34.6661C61.9276 34.5831 62.0105 34.5269 62.105 34.5135C62.1994 34.5001 62.2952 34.5307 62.3639 34.5978C66.3286 38.4504 64.6663 41.3848 64.5937 41.508C64.5468 41.5872 64.4671 41.6415 64.3752 41.6555C64.3598 41.6581 64.3437 41.6594 64.3283 41.6594C64.2531 41.6594 64.1792 41.6319 64.1227 41.5808C60.0835 37.9702 61.8627 34.6986 61.8807 34.6661ZM58.7771 18.3759C63.8618 18.4078 64.6476 21.4029 64.6785 21.53C64.7003 21.6194 64.6804 21.7132 64.6245 21.7867C64.5686 21.8601 64.4825 21.9041 64.3906 21.9073C64.2615 21.9118 64.1355 21.9144 64.0121 21.9144C61.6661 21.9144 60.3064 21.1169 59.5707 20.428C58.7141 19.626 58.4873 18.7941 58.4783 18.7596C58.4539 18.6677 58.4745 18.57 58.5329 18.4947C58.5914 18.42 58.6807 18.3765 58.7758 18.3765C58.7758 18.3759 58.7765 18.3759 58.7771 18.3759ZM61.402 25.7714C60.7042 24.8297 60.6316 23.9709 60.629 23.9351C60.6219 23.8407 60.6592 23.7474 60.7305 23.6842C60.8019 23.621 60.8989 23.5942 60.9927 23.6121C65.9887 24.5513 66.2207 27.6377 66.2277 27.7686C66.2329 27.8605 66.1962 27.9493 66.1281 28.0112C66.0709 28.0629 65.997 28.091 65.9206 28.091C65.9058 28.091 65.891 28.0897 65.8762 28.0878C63.3214 27.7169 62.033 26.6231 61.402 25.7714ZM57.0923 52.6125C55.1575 47.5685 58.2438 45.4647 58.2753 45.4443C58.3549 45.3919 58.4545 45.3791 58.5451 45.4104C58.6357 45.4411 58.7064 45.5126 58.7366 45.6026C60.4934 50.8292 57.6655 52.6853 57.544 52.7619C57.4939 52.7932 57.4367 52.8091 57.3795 52.8091C57.3468 52.8091 57.314 52.804 57.2825 52.7938C57.1951 52.7651 57.1251 52.6987 57.0923 52.6125ZM69.9405 20.3609C70.0285 20.3245 70.1294 20.3309 70.2123 20.3782C70.2952 20.4254 70.3511 20.5084 70.364 20.6029C71.1762 26.6857 67.6999 28.1197 67.5514 28.1778C67.5154 28.1919 67.4769 28.1989 67.439 28.1989C67.3869 28.1989 67.3349 28.1855 67.2886 28.16C67.2083 28.1153 67.1517 28.0367 67.1363 27.9461C66.0896 22.0274 69.902 20.3769 69.9405 20.3609ZM60.6515 40.5682C60.7158 40.498 60.8083 40.4616 60.9053 40.4699C61.0004 40.4782 61.0865 40.5299 61.1379 40.6103C64.1175 45.2578 61.8268 47.7402 61.7278 47.8437C61.6693 47.9043 61.589 47.9388 61.5048 47.9388C61.4971 47.9388 61.4894 47.9388 61.4817 47.9382C61.3898 47.9311 61.3056 47.8833 61.2523 47.8086C58.1448 43.3801 60.6258 40.5956 60.6515 40.5682ZM71.5463 28.0336C71.6401 28.0163 71.7371 28.0431 71.8085 28.1063C71.8798 28.1695 71.9171 28.2628 71.91 28.3573C71.4377 34.4758 67.7384 35.1635 67.581 35.1896C67.5643 35.1928 67.5469 35.1941 67.5302 35.1941C67.4563 35.1941 67.3844 35.1673 67.3278 35.1181C67.2584 35.0575 67.2199 34.9694 67.2231 34.8774C67.4325 28.8719 71.5052 28.0412 71.5463 28.0336ZM65.5087 21.5006C63.1974 16.3947 66.2624 14.0323 66.2939 14.0087C66.3704 13.9519 66.4693 13.9334 66.5612 13.9589C66.6531 13.9844 66.7283 14.0515 66.7636 14.1396C68.9015 19.446 66.0896 21.537 65.9688 21.6232C65.9161 21.6609 65.8531 21.6807 65.7889 21.6807C65.7625 21.6807 65.7355 21.6775 65.7092 21.6705C65.6205 21.6468 65.5466 21.5843 65.5087 21.5006ZM59.6677 16.0665C58.3498 16.0665 57.4129 15.7071 56.7967 15.3355C55.7904 14.7289 55.394 13.9627 55.3779 13.9302C55.3349 13.8453 55.3342 13.745 55.376 13.6595C55.4178 13.5739 55.4968 13.5126 55.5906 13.4934C60.5692 12.4706 61.9675 15.2359 62.0247 15.354C62.0645 15.4363 62.0652 15.5328 62.026 15.6158C61.9868 15.6988 61.9122 15.7601 61.8223 15.7824C61.0126 15.9848 60.2968 16.0665 59.6677 16.0665ZM62.585 56.5628C62.5863 56.6579 62.5432 56.7479 62.468 56.8073C60.2608 58.542 58.4327 59.0228 57.0846 59.0228C55.4743 59.0228 54.5484 58.3371 54.4796 58.2841C54.4063 58.2279 54.3626 58.1423 54.3601 58.0504C54.3575 57.9585 54.3967 57.871 54.4667 57.811C59.0489 53.8882 62.4269 56.2971 62.4603 56.322C62.5374 56.3789 62.5837 56.4676 62.585 56.5628ZM62.3569 15.0098C58.8298 10.6439 61.2002 7.59262 61.2247 7.56197C61.2844 7.48791 61.3744 7.44513 61.4708 7.44704C61.5665 7.44896 61.6558 7.49493 61.7124 7.57155C65.1225 12.175 62.9281 14.9 62.833 15.0137C62.7746 15.0839 62.6878 15.1241 62.5966 15.1241C62.5959 15.1241 62.5946 15.1241 62.594 15.1241C62.5021 15.1235 62.4147 15.0813 62.3569 15.0098ZM56.2081 61.8098C56.2647 61.8864 56.2827 61.9847 56.2557 62.076C56.2293 62.1673 56.1612 62.2408 56.0719 62.2759C54.5284 62.8729 53.2394 63.0931 52.1766 63.0931C49.2767 63.0931 48.0661 61.4529 47.9986 61.3577C47.9453 61.283 47.9286 61.1879 47.9536 61.0998C47.9787 61.0117 48.0417 60.9389 48.1265 60.9019C53.6655 58.4878 56.1831 61.7759 56.2081 61.8098ZM67.1183 50.9799C67.1363 51.0731 67.1093 51.1695 67.0457 51.2404C64.7055 53.8435 62.6094 54.42 61.2105 54.42C60.1503 54.42 59.491 54.0886 59.43 54.0567C59.3484 54.0139 59.2905 53.9367 59.2719 53.8467C59.2539 53.7566 59.277 53.6634 59.3355 53.5925C63.1729 48.9476 66.9166 50.7449 66.9538 50.7634C67.0399 50.8069 67.1003 50.8867 67.1183 50.9799ZM71.9832 36.7105C70.5008 41.3031 67.7821 41.9192 66.8594 41.9926C66.6833 42.0067 66.5728 42.0009 66.5484 41.9997C66.4623 41.9939 66.3832 41.9499 66.3331 41.8796C66.283 41.8094 66.2676 41.7206 66.2901 41.6383C67.7924 36.2138 71.6832 36.3351 71.7224 36.3376C71.8117 36.3421 71.8939 36.3874 71.9453 36.4602C71.9967 36.533 72.0102 36.6256 71.9832 36.7105ZM70.1281 43.9349C70.1686 44.0211 70.1667 44.1207 70.123 44.205C67.9659 48.35 65.323 48.8806 64.1124 48.8806C63.7307 48.8806 63.4917 48.8282 63.4544 48.8193C63.3644 48.7982 63.2892 48.7375 63.2488 48.6552C63.2083 48.5728 63.2076 48.4764 63.2468 48.3934C65.7972 42.9446 69.8737 43.758 69.9148 43.767C70.0086 43.7868 70.0877 43.8487 70.1281 43.9349ZM49.803 65.338C49.8512 65.4197 49.8589 65.52 49.8229 65.6081C49.7869 65.6962 49.7117 65.7626 49.6198 65.7882C48.3912 66.1253 47.331 66.26 46.4198 66.26C42.8021 66.26 41.5421 64.1262 41.4778 64.0132C41.4322 63.9334 41.4258 63.837 41.4592 63.752C41.4932 63.6665 41.5633 63.6007 41.6513 63.5726C47.5597 61.6853 49.7818 65.301 49.803 65.338ZM53.979 6.12922C53.9887 6.03472 54.042 5.94981 54.1236 5.90001C54.2052 5.8502 54.3055 5.84063 54.3948 5.87447C59.7712 7.90739 59.4133 11.3794 59.3953 11.5263C59.3843 11.6176 59.3323 11.6987 59.2545 11.7478C59.2051 11.7791 59.1479 11.7951 59.09 11.7951C59.0573 11.7951 59.0245 11.79 58.993 11.7791C53.6468 10.0086 53.9745 6.16817 53.979 6.12922ZM52.4799 56.1267C51.3136 50.8547 54.6782 49.2253 54.7122 49.2094C54.799 49.1692 54.8998 49.1711 54.9847 49.2151C55.0695 49.2592 55.1292 49.3396 55.1459 49.4328C56.1092 54.8599 53.037 56.2818 52.9059 56.3399C52.8661 56.3572 52.8237 56.3661 52.7813 56.3661C52.7337 56.3661 52.6862 56.3552 52.6425 56.3329C52.5589 56.2927 52.4998 56.2167 52.4799 56.1267ZM40.7819 61.6955C40.7588 61.6955 40.7427 61.6949 40.7356 61.6949C40.6431 61.691 40.5576 61.6457 40.5024 61.5723C40.4471 61.4988 40.4278 61.4043 40.4503 61.3156C41.7663 56.0781 45.5119 56.1094 45.5466 56.1075C45.6423 56.1101 45.7316 56.156 45.7875 56.2327C45.8441 56.3093 45.8614 56.4082 45.8338 56.4989C44.3469 61.5161 41.2188 61.6955 40.7819 61.6955ZM46.7315 59.4487C46.6608 59.3899 46.6203 59.3025 46.6216 59.2105C46.6891 53.8135 50.3376 52.9847 50.3749 52.9771C50.4687 52.9579 50.5657 52.9822 50.6383 53.0441C50.7109 53.106 50.7508 53.198 50.745 53.2931C50.4442 58.7955 47.1279 59.4883 46.9866 59.5151C46.9673 59.5189 46.948 59.5208 46.9287 59.5208C46.8574 59.5202 46.7874 59.4953 46.7315 59.4487Z" fill="white"/>
    <path d="M37.0153 1.2357C37.0153 1.77522 36.5758 2.2113 36.0328 2.2113C35.4892 2.2113 35.0523 1.77458 35.0523 1.2357C35.0523 0.696824 35.4892 0.260742 36.0328 0.260742C36.5758 0.260742 37.0153 0.696824 37.0153 1.2357ZM42.7304 3.36312C42.7304 3.90263 43.1692 4.33871 43.7109 4.33871C44.252 4.33871 44.6915 3.90199 44.6915 3.36312C44.6915 2.8236 44.252 2.38816 43.7109 2.38816C43.1692 2.38816 42.7304 2.8236 42.7304 3.36312ZM28.2931 2.38816C27.752 2.38816 27.3125 2.82424 27.3125 3.36312C27.3125 3.90263 27.752 4.33871 28.2931 4.33871C28.8348 4.33871 29.2736 3.90199 29.2736 3.36312C29.2736 2.8236 28.8354 2.38816 28.2931 2.38816ZM44.4274 4.66434H43.1352C43.1333 4.67264 43.1313 4.6803 43.13 4.68796H43.0671C42.6635 6.03579 41.3867 6.1073 39.93 5.91576C38.4778 5.72485 37.2274 4.08013 36.8097 2.53692H36.7242H35.2849H35.1988C34.7792 4.08077 33.5313 5.72869 32.0772 5.91576C30.5858 6.1073 29.3398 6.03643 28.9395 4.68796H28.8765C28.8746 4.6803 28.8727 4.672 28.8714 4.66434H27.5779C28.081 6.6315 28.5848 8.59801 29.0879 10.5652C29.1464 10.5396 29.2479 10.5147 29.3867 10.4905C29.3912 10.4962 29.397 10.4981 29.3989 10.4962C29.4015 10.4943 29.3996 10.4886 29.3996 10.4886C30.3364 10.3296 32.9395 10.2159 36.0065 10.2159C39.0703 10.2159 41.6714 10.3302 42.6108 10.4886C42.668 10.4962 42.7316 10.5083 42.7991 10.5262C42.8422 10.5377 42.882 10.5505 42.9193 10.5633C43.4211 8.5961 43.9243 6.63022 44.4274 4.66434Z" fill="url(#paint0_linear_2723_30999)"/>
    <path d="M5.31609 29.9215C4.77504 34.8947 5.29553 40.413 8.10742 45.3587C10.9829 50.4161 15.4944 55.3062 21.2583 58.1411C29.1786 62.0364 30.4625 61.6221 36.9923 63.8427C45.6792 66.7963 46.5743 72.2617 46.5743 72.2617H45.595C42.9701 66.7159 38.0493 65.2895 36.6138 64.6785C31.4283 62.47 21.1349 60.7071 13.834 53.606C11.3935 51.2308 4.17488 43.8819 4.78211 32.222C5.44717 19.4473 12.0091 12.5204 12.0091 12.5204C6.47272 19.2436 5.85713 24.9484 5.31609 29.9215ZM6.21505 35.1341C11.0285 32.6312 10.1206 29.0232 10.1103 28.9874C10.0859 28.8955 10.0191 28.8208 9.93104 28.7844C9.84301 28.748 9.74212 28.7544 9.65923 28.8023C4.85729 31.5592 5.73697 34.8117 5.77681 34.9489C5.80252 35.037 5.86677 35.1092 5.95159 35.1456C5.99015 35.1622 6.03127 35.1698 6.0724 35.1698C6.12187 35.1692 6.17071 35.1577 6.21505 35.1341ZM7.87417 41.5795C7.81698 41.6306 7.74372 41.6581 7.66854 41.6581C7.65312 41.6581 7.63706 41.6568 7.62164 41.6542C7.53039 41.6402 7.45007 41.5859 7.40316 41.5068C7.33055 41.3835 5.66758 38.4491 9.63288 34.5965C9.701 34.5301 9.79738 34.4988 9.89184 34.5122C9.9863 34.5256 10.0698 34.5824 10.1161 34.6648C10.1347 34.6986 11.9134 37.9702 7.87417 41.5795ZM13.2223 18.3759C13.3174 18.3759 13.4067 18.4193 13.4652 18.494C13.5237 18.5694 13.5442 18.6671 13.5198 18.759C13.5108 18.7941 13.284 19.6254 12.4274 20.4273C11.6917 21.1163 10.332 21.9137 7.98597 21.9137C7.8626 21.9137 7.73666 21.9118 7.6075 21.9067C7.51497 21.9035 7.42951 21.8595 7.3736 21.786C7.3177 21.7126 7.29778 21.6187 7.31963 21.5294C7.35047 21.4017 8.13634 18.4072 13.221 18.3753C13.221 18.3759 13.2216 18.3759 13.2223 18.3759ZM6.12123 28.0878C6.10645 28.0897 6.09167 28.091 6.07689 28.091C6.00043 28.091 5.92653 28.0629 5.86934 28.0112C5.80123 27.9493 5.7646 27.8599 5.76974 27.7686C5.77746 27.6377 6.00878 24.5513 11.0048 23.6121C11.0986 23.5948 11.1956 23.621 11.2669 23.6842C11.3383 23.7474 11.3755 23.84 11.3685 23.9352C11.3659 23.9715 11.2933 24.8297 10.5955 25.7714C9.96445 26.6232 8.6761 27.7169 6.12123 28.0878ZM14.7143 52.7938C14.6829 52.804 14.6501 52.8091 14.6173 52.8091C14.5595 52.8091 14.5023 52.7932 14.4528 52.7619C14.3314 52.6853 11.5034 50.8292 13.2602 45.6026C13.2904 45.5126 13.3611 45.4417 13.4517 45.4104C13.5423 45.3798 13.6419 45.3919 13.7216 45.4443C13.7531 45.4647 16.8393 47.5685 14.9045 52.6125C14.8718 52.6987 14.8024 52.7651 14.7143 52.7938ZM4.86179 27.9467C4.84573 28.0374 4.78982 28.1153 4.7095 28.1606C4.66324 28.1868 4.61119 28.1996 4.55914 28.1996C4.52123 28.1996 4.48267 28.1925 4.44669 28.1785C4.29826 28.1204 0.821945 26.687 1.63416 20.6036C1.64636 20.5091 1.70291 20.4261 1.7858 20.3788C1.86869 20.3316 1.96894 20.3252 2.05761 20.3616C2.09552 20.3769 5.90726 22.0274 4.86179 27.9467ZM10.7445 47.8073C10.6918 47.8826 10.6077 47.9305 10.5151 47.9369C10.5074 47.9375 10.4997 47.9375 10.492 47.9375C10.4078 47.9375 10.3275 47.9037 10.269 47.8424C10.1701 47.739 7.87931 45.2572 10.8589 40.6091C10.9103 40.5292 10.9964 40.4769 11.0915 40.4686C11.1885 40.4603 11.2804 40.4967 11.3453 40.5669C11.371 40.5956 13.852 43.3801 10.7445 47.8073ZM4.7744 34.8774C4.77762 34.9694 4.73906 35.0575 4.66966 35.1181C4.61312 35.1673 4.54115 35.1941 4.46725 35.1941C4.45055 35.1941 4.4332 35.1928 4.41649 35.1896C4.25906 35.1635 0.559776 34.4752 0.0874864 28.3573C0.0804182 28.2628 0.117687 28.1695 0.189013 28.1063C0.260338 28.0431 0.357366 28.0163 0.451182 28.0336C0.491664 28.0412 4.56492 28.8719 4.7744 34.8774ZM6.28766 21.6705C6.26131 21.6775 6.23432 21.6807 6.20798 21.6807C6.14436 21.6807 6.08139 21.6609 6.02806 21.6232C5.90726 21.537 3.09472 19.4466 5.2332 14.1396C5.26854 14.0515 5.34372 13.9844 5.43561 13.9589C5.5275 13.9334 5.62645 13.9519 5.70292 14.0087C5.7344 14.0317 8.79883 16.3947 6.48814 21.5006C6.45023 21.5843 6.37697 21.6468 6.28766 21.6705ZM10.1752 15.783C10.0859 15.7607 10.0107 15.6994 9.97152 15.6164C9.93232 15.5334 9.93297 15.437 9.97281 15.3546C10.03 15.2365 11.4282 12.4706 16.4069 13.4941C16.5007 13.5132 16.5797 13.5745 16.6215 13.6601C16.6633 13.7456 16.662 13.8459 16.6196 13.9308C16.6029 13.9634 16.207 14.7289 15.2008 15.3361C14.5845 15.7077 13.6477 16.0672 12.3298 16.0672C11.7 16.0665 10.9842 15.9848 10.1752 15.783ZM9.53586 56.3221C9.56927 56.2972 12.9479 53.8882 17.5294 57.811C17.5995 57.871 17.6387 57.9591 17.6361 58.0504C17.6335 58.1424 17.5898 58.2279 17.5166 58.2841C17.4478 58.3371 16.5219 59.0228 14.9116 59.0228C13.5635 59.0228 11.7354 58.542 9.52815 56.8073C9.45296 56.7486 9.40991 56.6579 9.4112 56.5628C9.41313 56.4676 9.45939 56.3789 9.53586 56.3221ZM9.40284 15.1241C9.4022 15.1241 9.40092 15.1241 9.40027 15.1241C9.30903 15.1241 9.22228 15.0839 9.16381 15.0137C9.06871 14.9 6.87433 12.175 10.2845 7.57155C10.341 7.49493 10.4303 7.44896 10.5261 7.44704C10.6231 7.44513 10.713 7.48727 10.7722 7.56197C10.7966 7.59262 13.167 10.6439 9.63995 15.0098C9.58212 15.0813 9.49537 15.1235 9.40284 15.1241ZM23.8703 60.9019C23.9552 60.9389 24.0181 61.0117 24.0432 61.0998C24.0676 61.1885 24.0515 61.283 23.9982 61.3577C23.9307 61.4522 22.7201 63.0931 19.8202 63.0931C18.7574 63.0931 17.4684 62.8729 15.9249 62.2759C15.8356 62.2414 15.7682 62.1673 15.7412 62.076C15.7142 61.9847 15.7322 61.8864 15.7887 61.8098C15.8138 61.7759 18.3314 58.4878 23.8703 60.9019ZM5.043 50.7641C5.08027 50.7456 8.82389 48.9476 12.6613 53.5932C12.7198 53.6641 12.7436 53.7573 12.7249 53.8473C12.7063 53.9373 12.6485 54.0146 12.5669 54.0574C12.5058 54.0893 11.8465 54.4207 10.7863 54.4207C9.38742 54.4207 7.292 53.8441 4.95111 51.241C4.88749 51.1702 4.86051 51.0737 4.8785 50.9805C4.89649 50.8867 4.95753 50.8069 5.043 50.7641ZM0.0515025 36.4602C0.102266 36.3874 0.185157 36.3415 0.274475 36.3376C0.313672 36.3351 4.20444 36.2144 5.70677 41.6383C5.72991 41.7213 5.71384 41.81 5.66372 41.8796C5.6136 41.9499 5.53456 41.9939 5.44846 41.9997C5.42468 42.0009 5.31352 42.0067 5.13745 41.9926C4.21536 41.9192 1.49665 41.3031 0.0135907 36.7105C-0.0133973 36.6256 9.67387e-05 36.533 0.0515025 36.4602ZM2.08203 43.7663C2.12315 43.7574 6.19963 42.9446 8.74999 48.3928C8.78919 48.4758 8.78855 48.5722 8.74806 48.6545C8.70758 48.7369 8.6324 48.7976 8.54244 48.8186C8.50517 48.8276 8.26613 48.8799 7.88445 48.8799C6.67384 48.8799 4.03095 48.35 1.87383 44.2043C1.83014 44.1201 1.82821 44.0198 1.86869 43.9343C1.90982 43.8487 1.98821 43.7868 2.08203 43.7663ZM30.3449 63.572C30.4329 63.6001 30.5036 63.6658 30.537 63.7514C30.5711 63.837 30.564 63.9327 30.5184 64.0125C30.4541 64.1256 29.194 66.2594 25.5764 66.2594C24.6652 66.2594 23.6056 66.124 22.3764 65.7875C22.2838 65.762 22.2093 65.6956 22.1733 65.6075C22.1373 65.5194 22.145 65.4198 22.1932 65.3374C22.2157 65.301 24.4377 61.6853 30.3449 63.572ZM13.0051 11.7791C12.9736 11.79 12.9408 11.7951 12.9081 11.7951C12.8502 11.7951 12.7931 11.7791 12.7436 11.7478C12.6658 11.6987 12.6138 11.6176 12.6028 11.5263C12.5849 11.3794 12.2269 7.90803 17.6033 5.87447C17.6927 5.84063 17.7929 5.8502 17.8745 5.90001C17.9561 5.94981 18.0094 6.03472 18.0191 6.12922C18.0223 6.16817 18.35 10.0086 13.0051 11.7791ZM19.3556 56.3342C19.3119 56.3559 19.2644 56.3674 19.2168 56.3674C19.1744 56.3674 19.132 56.3584 19.0922 56.3412C18.9611 56.2831 15.889 54.8612 16.8522 49.4341C16.8689 49.3403 16.928 49.2598 17.0135 49.2164C17.0983 49.1724 17.1985 49.1704 17.2859 49.2107C17.32 49.2266 20.6845 50.856 19.5182 56.128C19.4976 56.2167 19.4379 56.2927 19.3556 56.3342ZM26.163 56.4989C26.136 56.4076 26.1534 56.3093 26.2093 56.2327C26.2658 56.156 26.3545 56.1094 26.4503 56.1075C26.485 56.1088 30.2305 56.0782 31.5465 61.3156C31.569 61.4044 31.5497 61.4988 31.4944 61.5723C31.4392 61.6457 31.3537 61.691 31.2612 61.6949C31.2541 61.6949 31.2381 61.6955 31.2149 61.6955C30.778 61.6955 27.6506 61.5161 26.163 56.4989ZM25.0681 59.5202C25.0488 59.5202 25.0295 59.5183 25.0103 59.5145C24.8689 59.4876 21.5526 58.7949 21.2519 53.2925C21.2467 53.1973 21.2859 53.1054 21.3585 53.0435C21.4311 52.9815 21.5288 52.9573 21.622 52.9764C21.6586 52.9841 25.3078 53.8128 25.3752 59.2099C25.3765 59.3018 25.336 59.3893 25.2654 59.448C25.2095 59.4953 25.1394 59.5202 25.0681 59.5202Z" fill="url(#paint1_linear_2723_30999)"/>
    <path d="M59.9884 12.5204C59.9884 12.5204 66.5497 19.4479 67.2154 32.2226C67.8226 43.8819 60.6033 51.2314 58.1628 53.6059C50.8619 60.7071 40.5679 62.47 35.3824 64.6778C33.9469 65.2889 29.0261 66.7152 26.4012 72.2611H25.4219C25.4219 72.2611 26.317 66.7957 35.0039 63.8421C41.5337 61.6221 42.8176 62.0358 50.7379 58.1404C56.5018 55.3056 61.0133 50.4155 63.8888 45.3581C66.7007 40.4124 67.2211 34.894 66.6801 29.9209C66.1397 24.9484 65.5248 19.2436 59.9884 12.5204ZM65.9244 35.1692C65.9656 35.1692 66.0067 35.1609 66.0452 35.1449C66.1301 35.1085 66.1943 35.0364 66.22 34.9483C66.2599 34.811 67.1389 31.5586 62.3376 28.8016C62.2547 28.7544 62.1545 28.7474 62.0658 28.7838C61.9778 28.8202 61.9109 28.8955 61.8865 28.9868C61.8769 29.0232 60.9689 32.6306 65.7818 35.1334C65.8261 35.1577 65.875 35.1692 65.9244 35.1692ZM61.8807 34.6661C61.9276 34.5831 62.0105 34.5269 62.105 34.5135C62.1994 34.5001 62.2952 34.5307 62.3639 34.5978C66.3286 38.4504 64.6663 41.3848 64.5937 41.508C64.5468 41.5872 64.4671 41.6415 64.3752 41.6555C64.3598 41.6581 64.3437 41.6594 64.3283 41.6594C64.2531 41.6594 64.1792 41.6319 64.1227 41.5808C60.0835 37.9702 61.8627 34.6986 61.8807 34.6661ZM58.7771 18.3759C63.8618 18.4078 64.6476 21.4029 64.6785 21.53C64.7003 21.6194 64.6804 21.7132 64.6245 21.7867C64.5686 21.8601 64.4825 21.9041 64.3906 21.9073C64.2615 21.9118 64.1355 21.9144 64.0121 21.9144C61.6661 21.9144 60.3064 21.1169 59.5707 20.428C58.7141 19.626 58.4873 18.7941 58.4783 18.7596C58.4539 18.6677 58.4745 18.57 58.5329 18.4947C58.5914 18.42 58.6807 18.3765 58.7758 18.3765C58.7758 18.3759 58.7765 18.3759 58.7771 18.3759ZM61.402 25.7714C60.7042 24.8297 60.6316 23.9709 60.629 23.9351C60.6219 23.8407 60.6592 23.7474 60.7305 23.6842C60.8019 23.621 60.8989 23.5942 60.9927 23.6121C65.9887 24.5513 66.2207 27.6377 66.2277 27.7686C66.2329 27.8605 66.1962 27.9493 66.1281 28.0112C66.0709 28.0629 65.997 28.091 65.9206 28.091C65.9058 28.091 65.891 28.0897 65.8762 28.0878C63.3214 27.7169 62.033 26.6231 61.402 25.7714ZM57.0923 52.6125C55.1575 47.5685 58.2438 45.4647 58.2753 45.4443C58.3549 45.3919 58.4545 45.3791 58.5451 45.4104C58.6357 45.4411 58.7064 45.5126 58.7366 45.6026C60.4934 50.8292 57.6655 52.6853 57.544 52.7619C57.4939 52.7932 57.4367 52.8091 57.3795 52.8091C57.3468 52.8091 57.314 52.804 57.2825 52.7938C57.1951 52.7651 57.1251 52.6987 57.0923 52.6125ZM69.9405 20.3609C70.0285 20.3245 70.1294 20.3309 70.2123 20.3782C70.2952 20.4254 70.3511 20.5084 70.364 20.6029C71.1762 26.6857 67.6999 28.1197 67.5514 28.1778C67.5154 28.1919 67.4769 28.1989 67.439 28.1989C67.3869 28.1989 67.3349 28.1855 67.2886 28.16C67.2083 28.1153 67.1517 28.0367 67.1363 27.9461C66.0896 22.0274 69.902 20.3769 69.9405 20.3609ZM60.6515 40.5682C60.7158 40.498 60.8083 40.4616 60.9053 40.4699C61.0004 40.4782 61.0865 40.5299 61.1379 40.6103C64.1175 45.2578 61.8268 47.7402 61.7278 47.8437C61.6693 47.9043 61.589 47.9388 61.5048 47.9388C61.4971 47.9388 61.4894 47.9388 61.4817 47.9382C61.3898 47.9311 61.3056 47.8833 61.2523 47.8086C58.1448 43.3801 60.6258 40.5956 60.6515 40.5682ZM71.5463 28.0336C71.6401 28.0163 71.7371 28.0431 71.8085 28.1063C71.8798 28.1695 71.9171 28.2628 71.91 28.3573C71.4377 34.4758 67.7384 35.1635 67.581 35.1896C67.5643 35.1928 67.5469 35.1941 67.5302 35.1941C67.4563 35.1941 67.3844 35.1673 67.3278 35.1181C67.2584 35.0575 67.2199 34.9694 67.2231 34.8774C67.4325 28.8719 71.5052 28.0412 71.5463 28.0336ZM65.5087 21.5006C63.1974 16.3947 66.2624 14.0323 66.2939 14.0087C66.3704 13.9519 66.4693 13.9334 66.5612 13.9589C66.6531 13.9844 66.7283 14.0515 66.7636 14.1396C68.9015 19.446 66.0896 21.537 65.9688 21.6232C65.9161 21.6609 65.8531 21.6807 65.7889 21.6807C65.7625 21.6807 65.7355 21.6775 65.7092 21.6705C65.6205 21.6468 65.5466 21.5843 65.5087 21.5006ZM59.6677 16.0665C58.3498 16.0665 57.4129 15.7071 56.7967 15.3355C55.7904 14.7289 55.394 13.9627 55.3779 13.9302C55.3349 13.8453 55.3342 13.745 55.376 13.6595C55.4178 13.5739 55.4968 13.5126 55.5906 13.4934C60.5692 12.4706 61.9675 15.2359 62.0247 15.354C62.0645 15.4363 62.0652 15.5328 62.026 15.6158C61.9868 15.6988 61.9122 15.7601 61.8223 15.7824C61.0126 15.9848 60.2968 16.0665 59.6677 16.0665ZM62.585 56.5628C62.5863 56.6579 62.5432 56.7479 62.468 56.8073C60.2608 58.542 58.4327 59.0228 57.0846 59.0228C55.4743 59.0228 54.5484 58.3371 54.4796 58.2841C54.4063 58.2279 54.3626 58.1423 54.3601 58.0504C54.3575 57.9585 54.3967 57.871 54.4667 57.811C59.0489 53.8882 62.4269 56.2971 62.4603 56.322C62.5374 56.3789 62.5837 56.4676 62.585 56.5628ZM62.3569 15.0098C58.8298 10.6439 61.2002 7.59262 61.2247 7.56197C61.2844 7.48791 61.3744 7.44513 61.4708 7.44704C61.5665 7.44896 61.6558 7.49493 61.7124 7.57155C65.1225 12.175 62.9281 14.9 62.833 15.0137C62.7746 15.0839 62.6878 15.1241 62.5966 15.1241C62.5959 15.1241 62.5946 15.1241 62.594 15.1241C62.5021 15.1235 62.4147 15.0813 62.3569 15.0098ZM56.2081 61.8098C56.2647 61.8864 56.2827 61.9847 56.2557 62.076C56.2293 62.1673 56.1612 62.2408 56.0719 62.2759C54.5284 62.8729 53.2394 63.0931 52.1766 63.0931C49.2767 63.0931 48.0661 61.4529 47.9986 61.3577C47.9453 61.283 47.9286 61.1879 47.9536 61.0998C47.9787 61.0117 48.0417 60.9389 48.1265 60.9019C53.6655 58.4878 56.1831 61.7759 56.2081 61.8098ZM67.1183 50.9799C67.1363 51.0731 67.1093 51.1695 67.0457 51.2404C64.7055 53.8435 62.6094 54.42 61.2105 54.42C60.1503 54.42 59.491 54.0886 59.43 54.0567C59.3484 54.0139 59.2905 53.9367 59.2719 53.8467C59.2539 53.7566 59.277 53.6634 59.3355 53.5925C63.1729 48.9476 66.9166 50.7449 66.9538 50.7634C67.0399 50.8069 67.1003 50.8867 67.1183 50.9799ZM71.9832 36.7105C70.5008 41.3031 67.7821 41.9192 66.8594 41.9926C66.6833 42.0067 66.5728 42.0009 66.5484 41.9997C66.4623 41.9939 66.3832 41.9499 66.3331 41.8796C66.283 41.8094 66.2676 41.7206 66.2901 41.6383C67.7924 36.2138 71.6832 36.3351 71.7224 36.3376C71.8117 36.3421 71.8939 36.3874 71.9453 36.4602C71.9967 36.533 72.0102 36.6256 71.9832 36.7105ZM70.1281 43.9349C70.1686 44.0211 70.1667 44.1207 70.123 44.205C67.9659 48.35 65.323 48.8806 64.1124 48.8806C63.7307 48.8806 63.4917 48.8282 63.4544 48.8193C63.3644 48.7982 63.2892 48.7375 63.2488 48.6552C63.2083 48.5728 63.2076 48.4764 63.2468 48.3934C65.7972 42.9446 69.8737 43.758 69.9148 43.767C70.0086 43.7868 70.0877 43.8487 70.1281 43.9349ZM49.803 65.338C49.8512 65.4197 49.8589 65.52 49.8229 65.6081C49.7869 65.6962 49.7117 65.7626 49.6198 65.7882C48.3912 66.1253 47.331 66.26 46.4198 66.26C42.8021 66.26 41.5421 64.1262 41.4778 64.0132C41.4322 63.9334 41.4258 63.837 41.4592 63.752C41.4932 63.6665 41.5633 63.6007 41.6513 63.5726C47.5597 61.6853 49.7818 65.301 49.803 65.338ZM53.979 6.12922C53.9887 6.03472 54.042 5.94981 54.1236 5.90001C54.2052 5.8502 54.3055 5.84063 54.3948 5.87447C59.7712 7.90739 59.4133 11.3794 59.3953 11.5263C59.3843 11.6176 59.3323 11.6987 59.2545 11.7478C59.2051 11.7791 59.1479 11.7951 59.09 11.7951C59.0573 11.7951 59.0245 11.79 58.993 11.7791C53.6468 10.0086 53.9745 6.16817 53.979 6.12922ZM52.4799 56.1267C51.3136 50.8547 54.6782 49.2253 54.7122 49.2094C54.799 49.1692 54.8998 49.1711 54.9847 49.2151C55.0695 49.2592 55.1292 49.3396 55.1459 49.4328C56.1092 54.8599 53.037 56.2818 52.9059 56.3399C52.8661 56.3572 52.8237 56.3661 52.7813 56.3661C52.7337 56.3661 52.6862 56.3552 52.6425 56.3329C52.5589 56.2927 52.4998 56.2167 52.4799 56.1267ZM40.7819 61.6955C40.7588 61.6955 40.7427 61.6949 40.7356 61.6949C40.6431 61.691 40.5576 61.6457 40.5024 61.5723C40.4471 61.4988 40.4278 61.4043 40.4503 61.3156C41.7663 56.0781 45.5119 56.1094 45.5466 56.1075C45.6423 56.1101 45.7316 56.156 45.7875 56.2327C45.8441 56.3093 45.8614 56.4082 45.8338 56.4989C44.3469 61.5161 41.2188 61.6955 40.7819 61.6955ZM46.7315 59.4487C46.6608 59.3899 46.6203 59.3025 46.6216 59.2105C46.6891 53.8135 50.3376 52.9847 50.3749 52.9771C50.4687 52.9579 50.5657 52.9822 50.6383 53.0441C50.7109 53.106 50.7508 53.198 50.745 53.2931C50.4442 58.7955 47.1279 59.4883 46.9866 59.5151C46.9673 59.5189 46.948 59.5208 46.9287 59.5208C46.8574 59.5202 46.7874 59.4953 46.7315 59.4487Z" fill="url(#paint2_linear_2723_30999)"/>
    <defs>
        <linearGradient id="paint0_linear_2723_30999" x1="0.0019319" y1="36.2605" x2="72.0022" y2="36.2605" gradientUnits="userSpaceOnUse">
            <stop stop-color="white"/>
            <stop offset="0.0278" stop-color="#F1F0F0"/>
            <stop offset="0.0992" stop-color="#DBDBDB"/>
            <stop offset="0.1445" stop-color="#D3D3D4"/>
            <stop offset="0.2162" stop-color="#DADADA"/>
            <stop offset="0.3236" stop-color="#EEEDED"/>
            <stop offset="0.3808" stop-color="#D5D3D3"/>
            <stop offset="0.5258" stop-color="#E1E1E1"/>
            <stop offset="0.7054" stop-color="#E7E6E6"/>
            <stop offset="0.9024" stop-color="#D0CFCF"/>
            <stop offset="1" stop-color="#C2C2C2"/>
        </linearGradient>
        <linearGradient id="paint1_linear_2723_30999" x1="9.67396e-05" y1="36.2614" x2="72.0004" y2="36.2614" gradientUnits="userSpaceOnUse">
            <stop stop-color="#BDBDBD"/>
            <stop offset="0.0992" stop-color="#DBDBDB"/>
            <stop offset="0.1445" stop-color="#D3D3D4"/>
            <stop offset="0.2162" stop-color="#DADADA"/>
            <stop offset="0.3236" stop-color="#D9D8D8"/>
            <stop offset="0.5258" stop-color="#CEC9C9"/>
            <stop offset="0.7054" stop-color="#D9D8D8"/>
            <stop offset="0.9024" stop-color="#CACACA"/>
        </linearGradient>
        <linearGradient id="paint2_linear_2723_30999" x1="-0.00339043" y1="36.2614" x2="71.9969" y2="36.2614" gradientUnits="userSpaceOnUse">
            <stop stop-color="white"/>
            <stop offset="0.0278" stop-color="#F1F0F0"/>
            <stop offset="0.0992" stop-color="#BCBCBC"/>
            <stop offset="0.1445" stop-color="#D3D3D4"/>
            <stop offset="0.2162" stop-color="#DADADA"/>
            <stop offset="0.3236" stop-color="#EEEDED"/>
            <stop offset="0.5258" stop-color="#E3E3E3"/>
            <stop offset="0.7054" stop-color="#E7E6E6"/>
            <stop offset="0.9024" stop-color="#D0CFCF"/>
            <stop offset="1" stop-color="#C2C2C2"/>
        </linearGradient>
    </defs>
</svg>